<svg height="56" viewBox="0 0 30 56" width="30" xmlns="http://www.w3.org/2000/svg"><path d="m30 56h-30v-56h30" fill="none"/><path d="m21.5 9h-10c-.2761 0-.5.2238-.5.5v42c0 .2761.2239.5.5.5h10c.2761 0 .5-.2239.5-.5v-42c0-.2762-.2239-.5-.5-.5zm-12 0h-7.4999c-1.1046 0-2.0001.8954-2.0001 2.0001v38.9999c0 1.1046.8954 2 2 2h7.5c.2761 0 .5-.2239.5-.5v-42c0-.2761-.2239-.5-.5-.5zm18.5 0h-4.5c-.2761 0-.5.2238-.5.5v42c0 .2761.2239.5.5.5h4.5c1.1046 0 2-.8954 2-2v-39c0-1.1046-.8954-2-2-2z" fill="#1d1d1f"/></svg>