<svg xmlns="http://www.w3.org/2000/svg" viewBox="0 0 32 56" width="32" height="56"><path d="M0 0h32v56H0V0z" fill="none"/><path d="M13.634 27.713a1.048 1.048 0 0 0-1.199-1.128h-1.1v2.237h1.1a1.05 1.05 0 0 0 1.2-1.109zm8.075 3.12c.707 0 1.145-.558 1.145-1.471s-.442-1.479-1.144-1.479-1.137.559-1.137 1.476.423 1.475 1.136 1.475zm9.646-6.563a6.772 6.772 0 0 0-4.297-3.855 13.93 13.93 0 0 0-3.864-.407H8.806c-1.3-.045-2.601.092-3.864.407A6.772 6.772 0 0 0 .645 24.27a12.538 12.538 0 0 0-.632 4.534v14.392c-.07 1.537.145 3.074.632 4.534a6.772 6.772 0 0 0 4.297 3.855c1.263.315 2.563.452 3.864.406h14.388c1.301.046 2.602-.091 3.864-.407a6.772 6.772 0 0 0 4.297-3.854c.488-1.46.701-2.997.632-4.534V28.804a12.531 12.531 0 0 0-.632-4.534zm-9.883 2.899a1.409 1.409 0 0 1 1.299.745h.062v-2.336h.839v5.903h-.8v-.671h-.065a1.476 1.476 0 0 1-1.335.741c-1.081 0-1.765-.851-1.765-2.199s.69-2.184 1.765-2.184zm-11.008-1.322h2.206a1.855 1.855 0 1 1-.028 3.71h-1.3v1.924h-.879v-5.634h.001zm-1.748-.422a.529.529 0 1 1-.004 1.058.529.529 0 0 1 .004-1.058zm.418 1.816v4.24h-.836v-4.24h.836zm1.807 18.39c-3.292 0-5.353-2.31-5.353-5.996s2.06-6.008 5.353-6.008 5.354 2.319 5.354 6.008-2.06 5.997-5.354 5.997zm4.216-15.35c0-.76.57-1.199 1.58-1.264l1.152-.07v-.364c0-.465-.3-.727-.87-.727-.47 0-.793.176-.887.484h-.811c.086-.715.772-1.18 1.736-1.18 1.065 0 1.667.531 1.667 1.422v2.898h-.81v-.6h-.064c-.273.439-.76.696-1.276.672a1.279 1.279 0 0 1-1.417-1.27zm6.525 15.346c-2.535 0-4.225-1.3-4.362-3.31h1.448c.17 1.248 1.329 2.005 2.998 2.005 1.576 0 2.72-.83 2.72-1.974 0-.974-.644-1.618-2.254-1.973l-1.289-.281c-2.325-.508-3.332-1.562-3.332-3.214 0-1.916 1.69-3.26 4.096-3.26 2.319 0 3.997 1.384 4.057 3.357h-1.449a2.36 2.36 0 0 0-2.628-2.057l-.02.003c-1.448 0-2.567.71-2.567 1.892 0 .919.62 1.547 2.206 1.893l1.288.282c2.423.531 3.381 1.5 3.381 3.142-.002 2.154-1.693 3.5-4.293 3.5v-.005zM10.94 34.962c-2.373 0-3.863 1.8-3.863 4.67s1.49 4.662 3.864 4.662 3.864-1.799 3.864-4.661-1.489-4.67-3.864-4.67zm6.949-5.414l-1.04.07c-.584.04-.85.246-.85.633s.332.625.788.625a1.012 1.012 0 0 0 1.1-.96l.002-.368z" fill="#1d1d1f"/></svg>