<svg height="56" viewBox="0 0 54 56" width="54" xmlns="http://www.w3.org/2000/svg"><path d="m54 56h-54v-56h54" fill="none"/><path d="m53.2686 50h-40.6836c-.1183 0-.2141.1492-.2141.3333v.442c-.7004.0409-1.3746.2941-2.0261.5439-.1416.0547-.2832.1084-.3994.1523-.2715.0684-.6309.1006-.7949-.1348-.1465-.21-.1152-.5996.0723-.873.4136-.6329.7752-1.3033 1.0919-1.9901l.5156.1876c.1201.0437.2529-.0182.2966-.1383l4.2559-11.6931 6.3472 10.9936c.0591.1024.204.1295.3236.0605l.866-.5c.1196-.069.1686-.2081.1094-.3104l-20.7703-35.9749c-.0591-.1024-.204-.1295-.3236-.0604l-.866.5c-.0022.0013-.0023.004-.0045.0053l-.1331.0768.0012.002-.2891.1669c-.1224.0707-.1737.211-.1146.3134l13.325 23.0795-4.6067 12.6567c-.0437.1201.0182.2529.1383.2966l.4566.1662c-.3026.6518-.6454 1.2874-1.0345 1.8837-.2568.374-.3682 1.0049-.0684 1.4365.1143.1641.3594.3955.8496.3955.1455 0 .3125-.0205.5039-.0693.1426-.0518.2861-.1064.4316-.1621.6061-.2324 1.2318-.4667 1.8464-.5082v.3657c0 .1841.0958.3333.2141.3333h40.6837c.1183 0 .2142-.1492.2142-.3333v-1.3102c0-.1841-.0959-.3333-.2142-.3333zm-43.3259-.0136c0 .473.3834.8565.8564.8565s.8565-.3835.8565-.8565-.3834-.8565-.8565-.8565-.8564.3835-.8564.8565z" fill="#1d1d1f"/></svg>