<svg xmlns="http://www.w3.org/2000/svg" height="56" width="42" viewBox="0 0 42 56"><path fill="none" d="M0 0H42V56H0z"/><path d="M12.695 39.76c-.127-.16-.19-.373-.19-.637 0-.453.17-1.046.513-1.78.343-.735.864-1.475 1.565-2.22.7-.745 1.584-1.371 2.65-1.879 1.065-.508 2.32-.762 3.767-.762 1.457 0 2.718.254 3.783.762s1.947 1.134 2.642 1.88c.695.744 1.214 1.484 1.557 2.218.342.735.513 1.328.513 1.78 0 .265-.063.478-.19.638-.128.16-.329.24-.605.24H13.3c-.277 0-.477-.08-.605-.24zm6.16-9.302a4.424 4.424 0 0 1-1.523-1.648c-.376-.69-.563-1.477-.563-2.36 0-.817.187-1.57.563-2.26a4.42 4.42 0 0 1 1.523-1.647c.641-.409 1.353-.613 2.136-.613s1.497.204 2.137.613c.64.408 1.15.957 1.531 1.647.381.69.572 1.443.572 2.26 0 .883-.191 1.673-.572 2.368a4.401 4.401 0 0 1-1.531 1.648c-.64.403-1.353.604-2.137.604s-1.495-.203-2.136-.612zM37 12H5a5 5 0 0 0-5 5v22a5 5 0 0 0 5 5h32a5 5 0 0 0 5-5V17a5 5 0 0 0-5-5zm-22.625 2.667a1.375 1.375 0 1 1 0 2.75 1.375 1.375 0 0 1 0-2.75zm-4.375 0a1.375 1.375 0 1 1 0 2.75 1.375 1.375 0 0 1 0-2.75zm-4.375 0a1.375 1.375 0 1 1 0 2.75 1.375 1.375 0 0 1 0-2.75zM40 39c0 1.654-1.346 3-3 3H5c-1.654 0-3-1.346-3-3V20h38v19z"/></svg>