<svg height="56" viewBox="0 0 70 56" width="70" xmlns="http://www.w3.org/2000/svg"><path d="m70 56h-70v-56h70" fill="none"/><path d="m21.0256 50h-18.0256c-.5523 0-1-.4478-1-1v-42c0-.5523.4477-1 1-1h31c.5523 0 1 .4477 1 1v11h2v-11c0-1.6569-1.3431-3-3-3h-31c-1.6569 0-3 1.3431-3 3v42c0 1.6569 1.3431 3 3 3h18.9562c-.4869-.5001-.8231-1.1577-.9236-1.916-.0039-.0276-.0036-.0563-.0071-.084zm46.9744-41h-4.5c-.2761 0-.5.2238-.5.5v42c0 .2761.2239.5.5.5h4.5c1.1046 0 2-.8954 2-2v-39c0-1.1046-.8954-2-2-2zm-25.3 10h-18.3999c-1.2703 0-2.3 1.0308-2.3 2.3023v28.3954c0 .1036.0172.2024.0305.3023.1409 1.064 1.0006 1.8907 2.0789 1.9808.064.0053.1254.0192.1907.0192h18.3999c1.2703 0 2.3-1.0308 2.3-2.3023v-28.3954c0-.1036-.0172-.2024-.0305-.3024-.1492-1.1271-1.1028-1.9999-2.2695-1.9999zm.3 30.2564c0 .4106-.3271.7436-.7307.7436h-17.5386c-.4036 0-.7307-.3329-.7307-.7436v-27.5128c0-.4107.3271-.7436.7307-.7436h17.5386c.4036 0 .7307.3329.7307.7436zm18.5-40.2564h-10c-.2761 0-.5.2238-.5.5v42c0 .2761.2239.5.5.5h10c.2761 0 .5-.2239.5-.5v-42c0-.2762-.2239-.5-.5-.5zm-12 0h-7.4999c-1.1046 0-2.0001.8954-2.0001 2.0001v6.9999h2.7c1.6426 0 3.0444 1.2333 3.2675 2.9161.0178.127.0326.2543.0326.3862v28.3954c0 .2249-.0231.4444-.0663.6566-.0353.174-.0928.3391-.1544.5021-.0132.0347-.0189.0726-.0332.1067-.1621.3893-.3976.7395-.6876 1.037h4.4415c.2761 0 .5-.2239.5-.5v-42.0001c0-.2761-.2239-.5-.5-.5z" fill="#1d1d1f"/></svg>